<svg width="220" height="176" viewBox="0 0 220 176" fill="none" xmlns="http://www.w3.org/2000/svg">
<path d="M216.975 33.1719L150.047 0C143.137 9.55625 127.841 16.225 110 16.225C92.1593 16.225 76.8625 9.55625 69.9531 0L3.02495 33.1719C0.309329 34.5469 -0.790671 37.8469 0.549954 40.5625L20.2125 79.9219C21.5875 82.6375 24.8875 83.7375 27.6031 82.3969L47.0593 72.875C50.7031 71.0875 54.9656 73.7344 54.9656 77.825V165C54.9656 171.084 59.8812 176 65.9656 176H153.966C160.05 176 164.966 171.084 164.966 165V77.7906C164.966 73.7344 169.228 71.0531 172.872 72.8406L192.328 82.3625C195.044 83.7375 198.344 82.6375 199.719 79.8875L219.416 40.5625C220.791 37.8469 219.691 34.5125 216.975 33.1719Z" fill="#B848E4"/>
</svg>
