<svg width="220" height="176" viewBox="0 0 220 176" fill="none" xmlns="http://www.w3.org/2000/svg">
<g clip-path="url(#clip0_356_66)">
<path d="M216.975 33.1719L150.047 0C143.138 9.55625 127.841 16.225 110 16.225C92.1596 16.225 76.8627 9.55625 69.9533 0L3.0252 33.1719C0.309573 34.5469 -0.790427 37.8469 0.550198 40.5625L20.2127 79.9219C21.5877 82.6375 24.8877 83.7375 27.6033 82.3969L47.0596 72.875C50.7033 71.0875 54.9658 73.7344 54.9658 77.825V165C54.9658 171.084 59.8814 176 65.9658 176H153.966C160.05 176 164.966 171.084 164.966 165V77.7906C164.966 73.7344 169.228 71.0531 172.872 72.8406L192.328 82.3625C195.044 83.7375 198.344 82.6375 199.719 79.8875L219.416 40.5625C220.791 37.8469 219.691 34.5125 216.975 33.1719Z" fill="black"/>
</g>
<defs>
<clipPath id="clip0_356_66">
<rect width="220" height="176" fill="white"/>
</clipPath>
</defs>
</svg>
